M48
;Layer_Color=9474304
;FILE_FORMAT=4:4
METRIC
;TYPE=PLATED
T01F00S00C0.2000
T02F00S00C0.4000
T03F00S00C1.3000
%
T01
X00705000Y00143500
Y00154500
Y00165500
Y00176500
X00716000
Y00165500
Y00154500
Y00143500
X01210000
Y00154500
Y00165500
Y00176500
X01221000
Y00165500
Y00154500
Y00143500
X01329000Y00623500
X01340000
Y00634500
X01329000
Y00645500
X01340000
Y00656500
X01329000
X00835000Y00656500
Y00645500
Y00634500
Y00623500
X00824000
Y00634500
Y00645500
Y00656500
X00398530Y00559995
Y00548995
Y00537995
Y00526995
Y00515995
Y00504995
X00387530
Y00515995
Y00526995
Y00537995
Y00548995
X00376530
Y00537995
Y00526995
Y00515995
Y00504995
X00365530
Y00515995
Y00526995
Y00537995
Y00548995
Y00559995
X00376530
X00387530
X00354530
Y00548995
Y00537995
Y00526995
Y00515995
Y00504995
X00343530
Y00515995
Y00526995
Y00537995
Y00548995
X00332530
Y00537995
Y00526995
Y00515995
Y00504995
Y00559995
X00343530
X00177200
Y00548995
Y00537995
Y00526995
Y00515995
Y00504995
X00166200
Y00515995
Y00526995
Y00537995
Y00548995
X00155200
Y00537995
Y00526995
Y00515995
Y00504995
X00144200
Y00515995
Y00526995
Y00537995
Y00548995
Y00559995
X00155200
X00166200
X00133200
Y00548995
Y00537995
Y00526995
Y00515995
Y00504995
X00122200
Y00515995
Y00526995
Y00537995
Y00548995
X00111200
Y00537995
Y00526995
Y00515995
Y00504995
Y00559995
X00122200
T02
X00020000Y00175000
Y00195000
Y00215000
X00124258Y00117500
X00160000Y00110000
X00175500Y00115000
X00191000Y00110000
X00147000Y00095242
X00124742Y00072500
X00102000Y00094758
X00260710Y00105000
X00308652Y00118227
X00349000Y00110000
X00364500Y00115000
X00380000Y00110000
X00393000Y00094758
X00298471Y00194683
X00298306Y00209510
X00231437Y00209925
X00229531Y00228579
X00241486Y00231745
X00250000Y00275000
X00270000
X00230000
X00198452Y00341349
X00220499Y00386078
X00273631Y00386502
X00251210Y00168558
X00215879Y00164578
X00415258Y00117500
X00438000Y00095242
X00415742Y00072500
X00520000Y00175000
Y00195000
Y00215000
X00600000Y00175000
X00661750Y00184250
X00660000Y00145000
X00645000
X00661005Y00120205
X00668730Y00108155
X00665205Y00059994
X00715205
X00750205Y00044994
X00762500Y00107500
X00759994Y00154795
Y00169795
Y00189795
X00725615Y00193703
X00693085Y00216368
X00690000Y00292500
X00705000Y00300000
X00665000Y00292500
X00640000
X00602500Y00312500
X00615000Y00327500
X00600000Y00340000
X00645000Y00385000
X00665000
X00685000
X00703750Y00378750
X00718850Y00394000
X00738850
X00758850
X00925000Y00345000
X00945000
X00965000
X00985000
X01005000
X01105000Y00340000
X01120000Y00327500
X01107500Y00312500
X01145000Y00292500
X01170000
Y00385000
X01150000
X01190000
X01166750Y00184250
X01165000Y00145000
X01150000
X01166005Y00120205
X01173730Y00108155
X01170205Y00059994
X01102929Y00172929
X01030000Y00160000
Y00140000
Y00120000
X00925000Y00105000
X00915000Y00090000
X00895000
X00885000Y00105000
X00870000Y00125000
X00850000Y00130000
X00835000Y00120000
Y00100000
X01244750Y00106750
X01259750Y00106500
X01265250Y00149000
X01264994Y00169795
Y00189795
X01230615Y00193703
X01198085Y00216368
X01195000Y00292500
X01210000Y00300000
X01208750Y00378750
X01223850Y00394000
X01243850
X01263850
X01430000Y00345000
X01450000
X01470000
X01490000
X01510000
X01535000Y00159750
Y00139750
Y00119750
X01430000Y00105000
X01420000Y00090000
X01400000
X01390000Y00105000
X01375000Y00125000
X01355000Y00130000
X01340000Y00120000
Y00100000
X01220205Y00059994
X01286150Y00406000
X01306150
X01326150
X01341250Y00421250
X01360000Y00415000
X01380000
X01400000
X01430000Y00472500
X01442500Y00487500
X01445000Y00460000
X01405000Y00507500
X01380000
X01355000
X01340000Y00500000
X01351915Y00583631
X01319385Y00606297
X01285006Y00610205
Y00630205
Y00645205
X01282500Y00692500
X01294795Y00755005
X01329795Y00740005
X01379795
X01376270Y00691845
X01383994Y00679795
X01385000Y00655000
X01400000
X01383250Y00615750
X01445000Y00625000
X01209976Y00679961
Y00699961
X01194976Y00669961
X01174976Y00674961
X01159976Y00694961
X01149976Y00709961
X01129976
X01119976Y00694961
X01090000Y00620000
X01015000Y00640000
Y00660000
Y00680000
X00940000Y00625000
X00878250Y00615750
X00880000Y00655000
X00895000
X00878995Y00679795
X00871270Y00691845
X00875000Y00740000
X00825000
X00814385Y00606297
X00846915Y00583632
X00850000Y00507500
X00835000Y00500000
X00875000Y00507500
X00900000
X00937500Y00487500
X00925000Y00472500
X00940000Y00460000
X00895000Y00415000
X00875000
X00855000
X00836250Y00421250
X00821150Y00406000
X00801150
X01040000Y00460000
X01060000
X01080000
X01100000
X01120000
X00781150Y00406000
X00780006Y00610205
Y00630205
Y00645205
X00777500Y00692500
X00790000Y00755000
X00705000Y00700000
Y00680000
X00690000Y00670000
X00670000Y00675000
X00655000Y00695000
X00645000Y00710000
X00625000
X00615000Y00695000
X00510000Y00680000
Y00660000
Y00640000
X00410000Y00647500
X00410000Y00752030
X00535000Y00460000
X00555000
X00575000
X00595000
X00615000
X00260000Y00475000
X00240000
X00249146Y00449430
X00252330Y00647500
X00220796
X00189262
X00157728
X00126194
X00094660
X00094660Y00752030
X00126194
X00157728
X00189262
X00220796
X00252330
X00283864
X00315398
X00346932
X00378466
X00378466Y00647500
X00346932
X00315398
X00283864
T03
X00124500Y00095000
X00175500
X00364500
X00415500
X00854500Y00110000
X00905500
X01359500Y00110000
X01410500
X01190500Y00690000
X01139500
X00685500Y00690000
X00634500
M30
