G04*
G04 #@! TF.GenerationSoftware,Altium Limited,Altium Designer,25.4.2 (15)*
G04*
G04 Layer_Color=65535*
%FSAX44Y44*%
%MOMM*%
G71*
G04*
G04 #@! TF.SameCoordinates,DDFFB4A4-4E3D-46BD-814A-B4F9BFA491BB*
G04*
G04*
G04 #@! TF.FilePolarity,Positive*
G04*
G01*
G75*
%ADD10C,0.2500*%
%ADD11C,0.6000*%
%ADD12C,0.2000*%
%ADD13C,0.1500*%
%ADD14C,0.2540*%
G36*
X00781730Y00492427D02*
X00782012Y00492146D01*
X00782164Y00491778D01*
Y00491580D01*
Y00491381D01*
X00782012Y00491013D01*
X00781730Y00490732D01*
X00781363Y00490579D01*
X00780965D01*
X00780598Y00490732D01*
X00780316Y00491013D01*
X00780164Y00491381D01*
Y00491580D01*
Y00491778D01*
X00780316Y00492146D01*
X00780598Y00492427D01*
X00780965Y00492579D01*
X00781363D01*
X00781730Y00492427D01*
D02*
G37*
G36*
X01286730Y00492427D02*
X01287012Y00492146D01*
X01287164Y00491778D01*
Y00491579D01*
Y00491381D01*
X01287012Y00491013D01*
X01286730Y00490732D01*
X01286363Y00490579D01*
X01285965D01*
X01285598Y00490732D01*
X01285316Y00491013D01*
X01285164Y00491381D01*
Y00491579D01*
Y00491778D01*
X01285316Y00492146D01*
X01285598Y00492427D01*
X01285965Y00492579D01*
X01286363D01*
X01286730Y00492427D01*
D02*
G37*
G36*
X00781730Y00412427D02*
X00782012Y00412146D01*
X00782164Y00411778D01*
Y00411580D01*
Y00411381D01*
X00782012Y00411013D01*
X00781730Y00410732D01*
X00781363Y00410579D01*
X00780965D01*
X00780598Y00410732D01*
X00780316Y00411013D01*
X00780164Y00411381D01*
Y00411580D01*
Y00411778D01*
X00780316Y00412146D01*
X00780598Y00412427D01*
X00780965Y00412579D01*
X00781363D01*
X00781730Y00412427D01*
D02*
G37*
G36*
X01286730Y00412427D02*
X01287012Y00412146D01*
X01287164Y00411778D01*
Y00411579D01*
Y00411381D01*
X01287012Y00411013D01*
X01286730Y00410732D01*
X01286363Y00410579D01*
X01285965D01*
X01285598Y00410732D01*
X01285316Y00411013D01*
X01285164Y00411381D01*
Y00411579D01*
Y00411778D01*
X01285316Y00412146D01*
X01285598Y00412427D01*
X01285965Y00412579D01*
X01286363D01*
X01286730Y00412427D01*
D02*
G37*
G36*
X01264402Y00389268D02*
X01264684Y00388987D01*
X01264836Y00388619D01*
Y00388420D01*
Y00388222D01*
X01264684Y00387854D01*
X01264402Y00387573D01*
X01264035Y00387420D01*
X01263637D01*
X01263270Y00387573D01*
X01262988Y00387854D01*
X01262836Y00388222D01*
Y00388420D01*
Y00388619D01*
X01262988Y00388987D01*
X01263270Y00389268D01*
X01263637Y00389420D01*
X01264035D01*
X01264402Y00389268D01*
D02*
G37*
G36*
X00759402D02*
X00759684Y00388987D01*
X00759836Y00388619D01*
Y00388420D01*
Y00388222D01*
X00759684Y00387854D01*
X00759402Y00387573D01*
X00759035Y00387420D01*
X00758637D01*
X00758270Y00387573D01*
X00757988Y00387854D01*
X00757836Y00388222D01*
Y00388420D01*
Y00388619D01*
X00757988Y00388987D01*
X00758270Y00389268D01*
X00758637Y00389420D01*
X00759035D01*
X00759402Y00389268D01*
D02*
G37*
G36*
X01264402Y00309268D02*
X01264684Y00308987D01*
X01264836Y00308619D01*
Y00308420D01*
Y00308221D01*
X01264684Y00307854D01*
X01264402Y00307573D01*
X01264035Y00307420D01*
X01263637D01*
X01263270Y00307573D01*
X01262988Y00307854D01*
X01262836Y00308221D01*
Y00308420D01*
Y00308619D01*
X01262988Y00308987D01*
X01263270Y00309268D01*
X01263637Y00309420D01*
X01264035D01*
X01264402Y00309268D01*
D02*
G37*
G36*
X00759402D02*
X00759684Y00308987D01*
X00759836Y00308619D01*
Y00308420D01*
Y00308221D01*
X00759684Y00307854D01*
X00759402Y00307573D01*
X00759035Y00307420D01*
X00758637D01*
X00758270Y00307573D01*
X00757988Y00307854D01*
X00757836Y00308221D01*
Y00308420D01*
Y00308619D01*
X00757988Y00308987D01*
X00758270Y00309268D01*
X00758637Y00309420D01*
X00759035D01*
X00759402Y00309268D01*
D02*
G37*
G36*
X00246830Y00175830D02*
X00242830D01*
Y00179830D01*
X00246830Y00175830D01*
D02*
G37*
D10*
X00284196Y00424430D02*
G03*
X00284196Y00424430I-00001250J00000000D01*
G01*
X00408780Y00630985D02*
G03*
X00408780Y00630985I-00001250J00000000D01*
G01*
X00741250Y00107925D02*
G03*
X00741250Y00107925I-00001250J00000000D01*
G01*
X00801250Y00692075D02*
G03*
X00801250Y00692075I-00001250J00000000D01*
G01*
X01306250Y00692075D02*
G03*
X01306250Y00692075I-00001250J00000000D01*
G01*
X00187450Y00630985D02*
G03*
X00187450Y00630985I-00001250J00000000D01*
G01*
X01246250Y00107925D02*
G03*
X01246250Y00107925I-00001250J00000000D01*
G01*
X00099250Y00283500D02*
G03*
X00099250Y00283500I-00001250J00000000D01*
G01*
X00319250Y00283500D02*
G03*
X00319250Y00283500I-00001250J00000000D01*
G01*
X00423250Y00251500D02*
G03*
X00423250Y00251500I-00001250J00000000D01*
G01*
X00203250Y00251500D02*
G03*
X00203250Y00251500I-00001250J00000000D01*
G01*
X01443750Y00509750D02*
G03*
X01443750Y00509750I-00001250J00000000D01*
G01*
X00603750Y00290250D02*
G03*
X00603750Y00290250I-00001250J00000000D01*
G01*
X00938750Y00509750D02*
G03*
X00938750Y00509750I-00001250J00000000D01*
G01*
X01108750Y00290250D02*
G03*
X01108750Y00290250I-00001250J00000000D01*
G01*
D11*
X00725000Y00121000D02*
G03*
X00725000Y00121000I-00003000J00000000D01*
G01*
X00821000Y00679000D02*
G03*
X00821000Y00679000I-00003000J00000000D01*
G01*
X01326000Y00679000D02*
G03*
X01326000Y00679000I-00003000J00000000D01*
G01*
X01230000Y00121000D02*
G03*
X01230000Y00121000I-00003000J00000000D01*
G01*
D12*
X00257542Y00421735D02*
Y00462125D01*
X00240749D02*
X00257542D01*
X00240749Y00421735D02*
Y00462125D01*
Y00421735D02*
X00257542D01*
X00384000Y00689500D02*
Y00710500D01*
X00436000Y00689500D02*
Y00710500D01*
X00313030Y00510495D02*
Y00617370D01*
Y00510495D02*
X00318030D01*
X00313030Y00617370D02*
X00315530D01*
X00415530D02*
X00418030D01*
X00413030Y00510495D02*
X00418030D01*
Y00617370D01*
X00689000Y00209000D02*
X00732000D01*
X00689000Y00111000D02*
X00732000D01*
X00689000D02*
Y00209000D01*
X00732000Y00111000D02*
Y00209000D01*
X00808000Y00591000D02*
X00851000D01*
X00808000Y00689000D02*
X00851000D01*
Y00591000D02*
Y00689000D01*
X00808000Y00591000D02*
Y00689000D01*
X01313000Y00591000D02*
X01356000D01*
X01313000Y00689000D02*
X01356000D01*
Y00591000D02*
Y00689000D01*
X01313000Y00591000D02*
Y00689000D01*
X00091700Y00510495D02*
Y00617370D01*
Y00510495D02*
X00096700D01*
X00091700Y00617370D02*
X00094200D01*
X00194200D02*
X00196700D01*
X00191700Y00510495D02*
X00196700D01*
Y00617370D01*
X01194000Y00209000D02*
X01237000D01*
X01194000Y00111000D02*
X01237000D01*
X01194000D02*
Y00209000D01*
X01237000Y00111000D02*
Y00209000D01*
X01140500Y00471000D02*
Y00609000D01*
X01269500Y00471000D02*
Y00609000D01*
X01140500Y00471000D02*
X01173500D01*
X01140500Y00609000D02*
X01173500D01*
X01236500Y00471000D02*
X01269500D01*
X01236500Y00609000D02*
X01269500D01*
X00325250Y00435211D02*
Y00439211D01*
X00357750Y00435211D02*
Y00439211D01*
X00922500Y00388500D02*
Y00456000D01*
Y00388500D02*
X00950500D01*
X00979500D02*
X01007500D01*
Y00456000D01*
X00938000Y00471500D02*
X00950500D01*
X00922500Y00456000D02*
X00938000Y00471500D01*
X00992000D02*
X01007500Y00456000D01*
X00979500Y00471500D02*
X00992000D01*
X01054500Y00634000D02*
X01075500D01*
X01054500Y00686000D02*
X01075500D01*
X01474500Y00165750D02*
X01495500D01*
X01474500Y00113750D02*
X01495500D01*
X00549500Y00634000D02*
X00570500D01*
X00549500Y00686000D02*
X00570500D01*
X00969500Y00166000D02*
X00990500D01*
X00969500Y00114000D02*
X00990500D01*
X00059500Y00169000D02*
X00080500D01*
X00059500Y00221000D02*
X00080500D01*
X00100000Y00295500D02*
Y00301000D01*
Y00295500D02*
X00180000D01*
Y00301000D01*
X00176250Y00435211D02*
Y00439211D01*
X00143750Y00435211D02*
Y00439211D01*
X00320000Y00295500D02*
Y00301000D01*
Y00295500D02*
X00400000D01*
Y00301000D01*
X00310208Y00689030D02*
Y00710030D01*
X00258207Y00689030D02*
Y00710030D01*
X00321390Y00689030D02*
Y00710030D01*
X00373390Y00689030D02*
Y00710030D01*
X00459500Y00169000D02*
X00480500D01*
X00459500Y00221000D02*
X00480500D01*
X00340000Y00234000D02*
Y00239500D01*
X00420000D01*
Y00234000D02*
Y00239500D01*
X00120000Y00234000D02*
Y00239500D01*
X00200000D01*
Y00234000D02*
Y00239500D01*
X00224000Y00314500D02*
Y00335500D01*
X00276000Y00314500D02*
Y00335500D01*
X00691000Y00324500D02*
Y00345500D01*
X00639000Y00324500D02*
Y00345500D01*
X01007500Y00229000D02*
Y00296500D01*
X00979500D02*
X01007500D01*
X00922500D02*
X00950500D01*
X00922500Y00229000D02*
Y00296500D01*
X00979500Y00213500D02*
X00992000D01*
X01007500Y00229000D01*
X00922500D02*
X00938000Y00213500D01*
X00950500D01*
X00849000Y00454500D02*
Y00475500D01*
X00901000Y00454500D02*
Y00475500D01*
X00532500Y00503500D02*
Y00571000D01*
Y00503500D02*
X00560500D01*
X00589500D02*
X00617500D01*
Y00571000D01*
X00548000Y00586500D02*
X00560500D01*
X00532500Y00571000D02*
X00548000Y00586500D01*
X00602000D02*
X00617500Y00571000D01*
X00589500Y00586500D02*
X00602000D01*
X00731500Y00609000D02*
X00764500D01*
X00731500Y00471000D02*
X00764500D01*
X00635500Y00609000D02*
X00668500D01*
X00635500Y00471000D02*
X00668500D01*
X00764500D02*
Y00609000D01*
X00635500Y00471000D02*
Y00609000D01*
X00907969Y00606015D02*
Y00613984D01*
X00927031Y00606015D02*
Y00613984D01*
X01280500Y00191000D02*
X01313500D01*
X01280500Y00329000D02*
X01313500D01*
X01376500Y00191000D02*
X01409500D01*
X01376500Y00329000D02*
X01409500D01*
X01280500Y00191000D02*
Y00329000D01*
X01409500Y00191000D02*
Y00329000D01*
X01512500Y00229000D02*
Y00296500D01*
X01484500D02*
X01512500D01*
X01427500D02*
X01455500D01*
X01427500Y00229000D02*
Y00296500D01*
X01484500Y00213500D02*
X01497000D01*
X01512500Y00229000D01*
X01427500D02*
X01443000Y00213500D01*
X01455500D01*
X01484500Y00471500D02*
X01497000D01*
X01512500Y00456000D01*
X01427500D02*
X01443000Y00471500D01*
X01455500D01*
X01512500Y00388500D02*
Y00456000D01*
X01484500Y00388500D02*
X01512500D01*
X01427500D02*
X01455500D01*
X01427500D02*
Y00456000D01*
X01354000Y00454500D02*
Y00475500D01*
X01406000Y00454500D02*
Y00475500D01*
X01412969Y00606015D02*
Y00613984D01*
X01432031Y00606015D02*
Y00613984D01*
X01414500Y00576400D02*
X01418500D01*
Y00509400D02*
Y00576400D01*
X01414500Y00509400D02*
X01418500D01*
X00120660Y00689030D02*
Y00710030D01*
X00068660Y00689030D02*
Y00710030D01*
X01265500Y00670500D02*
Y00674500D01*
X01233000Y00670500D02*
Y00674500D01*
X01094500Y00586500D02*
X01107000D01*
X01122500Y00571000D01*
X01037500D02*
X01053000Y00586500D01*
X01065500D01*
X01122500Y00503500D02*
Y00571000D01*
X01094500Y00503500D02*
X01122500D01*
X01037500D02*
X01065500D01*
X01037500D02*
Y00571000D01*
X01122500Y00344000D02*
Y00411500D01*
X01094500D02*
X01122500D01*
X01037500D02*
X01065500D01*
X01037500Y00344000D02*
Y00411500D01*
X01094500Y00328500D02*
X01107000D01*
X01122500Y00344000D01*
X01037500D02*
X01053000Y00328500D01*
X01065500D01*
X01196000Y00324500D02*
Y00345500D01*
X01144000Y00324500D02*
Y00345500D01*
X01137031Y00186015D02*
Y00193985D01*
X01117969Y00186015D02*
Y00193985D01*
X00296250Y00553000D02*
Y00557000D01*
X00263750Y00553000D02*
Y00557000D01*
X00246250Y00553000D02*
Y00557000D01*
X00213750Y00553000D02*
Y00557000D01*
X00183843Y00689030D02*
Y00710030D01*
X00131842Y00689030D02*
Y00710030D01*
X00247025Y00689030D02*
Y00710030D01*
X00195025Y00689030D02*
Y00710030D01*
X00617500Y00344000D02*
Y00411500D01*
X00589500D02*
X00617500D01*
X00532500D02*
X00560500D01*
X00532500Y00344000D02*
Y00411500D01*
X00589500Y00328500D02*
X00602000D01*
X00617500Y00344000D01*
X00532500D02*
X00548000Y00328500D01*
X00560500D01*
X00632031Y00186015D02*
Y00193985D01*
X00612969Y00186015D02*
Y00193985D01*
X00626500Y00290600D02*
X00630500D01*
X00626500Y00223600D02*
Y00290600D01*
Y00223600D02*
X00630500D01*
X00775500Y00191000D02*
X00808500D01*
X00775500Y00329000D02*
X00808500D01*
X00871500Y00191000D02*
X00904500D01*
X00871500Y00329000D02*
X00904500D01*
X00775500Y00191000D02*
Y00329000D01*
X00904500Y00191000D02*
Y00329000D01*
X00760500Y00670500D02*
Y00674500D01*
X00728000Y00670500D02*
Y00674500D01*
X00909500Y00509400D02*
X00913500D01*
Y00576400D01*
X00909500D02*
X00913500D01*
X01131500Y00290600D02*
X01135500D01*
X01131500Y00223600D02*
Y00290600D01*
Y00223600D02*
X01135500D01*
X01284500Y00125500D02*
Y00129500D01*
X01317000Y00125500D02*
Y00129500D01*
X00779500Y00125500D02*
Y00129500D01*
X00812000Y00125500D02*
Y00129500D01*
D13*
X00242830Y00175830D02*
Y00184830D01*
Y00175830D02*
X00251830D01*
X00242830Y00179830D02*
X00246830Y00175830D01*
X00281830D02*
X00290830D01*
Y00184830D01*
X00281830Y00223830D02*
X00290830D01*
Y00214830D02*
Y00223830D01*
X00242830D02*
X00251830D01*
X00242830Y00214830D02*
Y00223830D01*
D14*
X00217697Y00090236D02*
X00215158Y00092775D01*
X00210079D01*
X00207540Y00090236D01*
Y00080079D01*
X00210079Y00077540D01*
X00215158D01*
X00217697Y00080079D01*
X00222775Y00092775D02*
Y00077540D01*
Y00085157D01*
X00232932D01*
Y00092775D01*
Y00077540D01*
X00248167Y00090236D02*
X00245628Y00092775D01*
X00240549D01*
X00238010Y00090236D01*
Y00080079D01*
X00240549Y00077540D01*
X00245628D01*
X00248167Y00080079D01*
Y00085157D01*
X00243088D01*
X00253245Y00077540D02*
Y00092775D01*
X00260863D01*
X00263402Y00090236D01*
Y00085157D01*
X00260863Y00082618D01*
X00253245D01*
X00258324D02*
X00263402Y00077540D01*
X00292540Y00092775D02*
Y00077540D01*
X00300158D01*
X00302697Y00080079D01*
Y00082618D01*
X00300158Y00085157D01*
X00292540D01*
X00300158D01*
X00302697Y00087697D01*
Y00090236D01*
X00300158Y00092775D01*
X00292540D01*
X00307775Y00077540D02*
Y00087697D01*
X00312853Y00092775D01*
X00317932Y00087697D01*
Y00077540D01*
Y00085157D01*
X00307775D01*
X00323010Y00092775D02*
X00333167D01*
X00328088D01*
Y00077540D01*
X00337540Y00012540D02*
Y00027775D01*
X00345158D01*
X00347697Y00025236D01*
Y00020157D01*
X00345158Y00017618D01*
X00337540D01*
X00352775Y00022697D02*
Y00012540D01*
Y00017618D01*
X00355314Y00020157D01*
X00357853Y00022697D01*
X00360393D01*
X00368010Y00012540D02*
X00373088D01*
X00370549D01*
Y00022697D01*
X00368010D01*
X00383245Y00012540D02*
X00388324D01*
X00390863Y00015079D01*
Y00020157D01*
X00388324Y00022697D01*
X00383245D01*
X00380706Y00020157D01*
Y00015079D01*
X00383245Y00012540D01*
X00421333D02*
X00411176D01*
X00421333Y00022697D01*
Y00025236D01*
X00418794Y00027775D01*
X00413715D01*
X00411176Y00025236D01*
X00102540Y00012540D02*
Y00027775D01*
X00110157D01*
X00112697Y00025236D01*
Y00020157D01*
X00110157Y00017618D01*
X00102540D01*
X00117775Y00022697D02*
Y00012540D01*
Y00017618D01*
X00120314Y00020157D01*
X00122853Y00022697D01*
X00125393D01*
X00133010Y00012540D02*
X00138089D01*
X00135549D01*
Y00022697D01*
X00133010D01*
X00148245Y00012540D02*
X00153324D01*
X00155863Y00015079D01*
Y00020157D01*
X00153324Y00022697D01*
X00148245D01*
X00145706Y00020157D01*
Y00015079D01*
X00148245Y00012540D01*
X00176176D02*
X00181255D01*
X00178715D01*
Y00027775D01*
X00176176Y00025236D01*
X00767540Y00047540D02*
X00772618D01*
X00770079D01*
Y00062775D01*
X00767540Y00060236D01*
X00780236Y00050079D02*
X00782775Y00047540D01*
X00787853D01*
X00790393Y00050079D01*
Y00060236D01*
X00787853Y00062775D01*
X00782775D01*
X00780236Y00060236D01*
Y00057697D01*
X00782775Y00055157D01*
X00790393D01*
X00795471Y00062775D02*
Y00052618D01*
X00800549Y00047540D01*
X00805628Y00052618D01*
Y00062775D01*
X01282697Y00062775D02*
X01272540D01*
Y00055157D01*
X01277618Y00057697D01*
X01280157D01*
X01282697Y00055157D01*
Y00050079D01*
X01280157Y00047540D01*
X01275079D01*
X01272540Y00050079D01*
X01287775Y00062775D02*
Y00052618D01*
X01292853Y00047540D01*
X01297932Y00052618D01*
Y00062775D01*
X01277436Y00752421D02*
X01272358D01*
X01274897D01*
Y00737186D01*
X01277436Y00739725D01*
X01254583Y00752421D02*
X01264740D01*
X01254583Y00742264D01*
Y00739725D01*
X01257122Y00737186D01*
X01262201D01*
X01264740Y00739725D01*
X01249505Y00737186D02*
Y00747343D01*
X01244427Y00752421D01*
X01239348Y00747343D01*
Y00737186D01*
X00762303Y00752460D02*
X00772460D01*
X00762303Y00742303D01*
Y00739764D01*
X00764843Y00737225D01*
X00769921D01*
X00772460Y00739764D01*
X00749607Y00752460D02*
Y00737225D01*
X00757225Y00744842D01*
X00747068D01*
X00741990Y00737225D02*
Y00747382D01*
X00736911Y00752460D01*
X00731833Y00747382D01*
Y00737225D01*
X00082540Y00062460D02*
X00092697D01*
X00207540Y00062382D02*
X00217697D01*
X00212618Y00057303D02*
Y00067460D01*
X00457460Y00062460D02*
X00447303D01*
X00332460Y00062382D02*
X00322303D01*
X00327382Y00057303D02*
Y00067460D01*
X00592540Y00722540D02*
X00602697D01*
X00717540Y00722618D02*
X00727697D01*
X00722618Y00727697D02*
Y00717540D01*
X01097516Y00722501D02*
X01107673D01*
X01222516Y00722579D02*
X01232673D01*
X01227594Y00727657D02*
Y00717501D01*
X01452460Y00077460D02*
X01442303D01*
X01327460Y00077382D02*
X01317303D01*
X01322382Y00072303D02*
Y00082460D01*
X00822460Y00077382D02*
X00812303D01*
X00817382Y00072303D02*
Y00082460D01*
X00947460Y00077460D02*
X00937303D01*
M02*
