G04*
G04 #@! TF.GenerationSoftware,Altium Limited,Altium Designer,25.4.2 (15)*
G04*
G04 Layer_Color=8421504*
%FSAX44Y44*%
%MOMM*%
G71*
G04*
G04 #@! TF.SameCoordinates,DDFFB4A4-4E3D-46BD-814A-B4F9BFA491BB*
G04*
G04*
G04 #@! TF.FilePolarity,Positive*
G04*
G01*
G75*
G04:AMPARAMS|DCode=15|XSize=1.5404mm|YSize=0.2525mm|CornerRadius=0.1262mm|HoleSize=0mm|Usage=FLASHONLY|Rotation=180.000|XOffset=0mm|YOffset=0mm|HoleType=Round|Shape=RoundedRectangle|*
%AMROUNDEDRECTD15*
21,1,1.5404,0.0000,0,0,180.0*
21,1,1.2880,0.2525,0,0,180.0*
1,1,0.2525,-0.6440,0.0000*
1,1,0.2525,0.6440,0.0000*
1,1,0.2525,0.6440,0.0000*
1,1,0.2525,-0.6440,0.0000*
%
%ADD15ROUNDEDRECTD15*%
%ADD16R,1.5404X0.2525*%
%ADD17R,5.4000X1.9500*%
%ADD18R,0.8000X2.8000*%
%ADD19R,8.7000X2.9000*%
%ADD20R,2.7400X4.7500*%
%ADD21O,1.4000X0.3150*%
%ADD22R,5.5000X3.6500*%
%ADD23R,0.6500X1.2000*%
%ADD24R,3.4500X3.1000*%
%ADD25R,2.3000X4.5500*%
%ADD26R,1.9500X5.4000*%
%ADD27R,1.3000X1.6000*%
%ADD28R,7.1500X6.0000*%
%ADD29R,1.0500X1.0000*%
%ADD30R,0.9500X0.9500*%
%ADD31R,0.9500X0.9500*%
%ADD32R,1.0000X1.0500*%
%ADD33R,2.0000X2.0000*%
G04:AMPARAMS|DCode=34|XSize=0.75mm|YSize=0.25mm|CornerRadius=0.0625mm|HoleSize=0mm|Usage=FLASHONLY|Rotation=180.000|XOffset=0mm|YOffset=0mm|HoleType=Round|Shape=RoundedRectangle|*
%AMROUNDEDRECTD34*
21,1,0.7500,0.1250,0,0,180.0*
21,1,0.6250,0.2500,0,0,180.0*
1,1,0.1250,-0.3125,0.0625*
1,1,0.1250,0.3125,0.0625*
1,1,0.1250,0.3125,-0.0625*
1,1,0.1250,-0.3125,-0.0625*
%
%ADD34ROUNDEDRECTD34*%
G04:AMPARAMS|DCode=35|XSize=0.75mm|YSize=0.25mm|CornerRadius=0.0625mm|HoleSize=0mm|Usage=FLASHONLY|Rotation=270.000|XOffset=0mm|YOffset=0mm|HoleType=Round|Shape=RoundedRectangle|*
%AMROUNDEDRECTD35*
21,1,0.7500,0.1250,0,0,270.0*
21,1,0.6250,0.2500,0,0,270.0*
1,1,0.1250,-0.0625,-0.3125*
1,1,0.1250,-0.0625,0.3125*
1,1,0.1250,0.0625,0.3125*
1,1,0.1250,0.0625,-0.3125*
%
%ADD35ROUNDEDRECTD35*%
%ADD36R,1.9062X1.5546*%
%ADD37R,6.8000X5.5000*%
%ADD38R,1.7000X0.9500*%
%ADD39R,9.7000X3.7000*%
%ADD40R,10.1000X1.4000*%
%ADD41R,8.0000X0.8000*%
G36*
X00278863Y00212004D02*
X00279004Y00211863D01*
X00279080Y00211679D01*
X00279080Y00211580D01*
Y00211580D01*
Y00211580D01*
D01*
X00279081Y00188079D01*
X00279081Y00187980D01*
X00279004Y00187796D01*
X00278864Y00187656D01*
X00278680Y00187580D01*
X00278580Y00187580D01*
X00278580Y00187580D01*
X00258580Y00187580D01*
X00258461Y00187580D01*
X00258228Y00187626D01*
X00258008Y00187717D01*
X00257810Y00187850D01*
X00257726Y00187934D01*
X00257726Y00187934D01*
X00254934Y00190726D01*
X00254850Y00190810D01*
X00254717Y00191008D01*
X00254626Y00191228D01*
X00254580Y00191461D01*
Y00191580D01*
X00254580D01*
X00254580Y00211580D01*
Y00211679D01*
X00254657Y00211863D01*
X00254797Y00212003D01*
X00254981Y00212079D01*
X00255081Y00212079D01*
X00255081Y00212080D01*
X00278580Y00212080D01*
X00278679Y00212080D01*
X00278863Y00212004D01*
D02*
G37*
D15*
X00228047Y00424430D02*
D03*
Y00429430D02*
D03*
Y00434430D02*
D03*
Y00439430D02*
D03*
Y00444430D02*
D03*
Y00449430D02*
D03*
Y00454430D02*
D03*
Y00459430D02*
D03*
X00270244D02*
D03*
Y00454430D02*
D03*
Y00449430D02*
D03*
Y00444430D02*
D03*
Y00439430D02*
D03*
Y00434430D02*
D03*
Y00429430D02*
D03*
D16*
Y00424430D02*
D03*
D17*
X00410000Y00675750D02*
D03*
Y00724250D02*
D03*
X00284207Y00723780D02*
D03*
Y00675280D02*
D03*
X00347390D02*
D03*
Y00723780D02*
D03*
X00250000Y00300750D02*
D03*
Y00349250D02*
D03*
X00665000Y00359250D02*
D03*
Y00310750D02*
D03*
X00875000Y00440750D02*
D03*
Y00489250D02*
D03*
X01380000Y00440750D02*
D03*
Y00489250D02*
D03*
X00094660Y00723780D02*
D03*
Y00675280D02*
D03*
X01170000Y00359250D02*
D03*
Y00310750D02*
D03*
X00157843Y00723780D02*
D03*
Y00675280D02*
D03*
X00221025Y00723780D02*
D03*
Y00675280D02*
D03*
D18*
X00371530Y00611490D02*
D03*
X00359530D02*
D03*
X00347530D02*
D03*
X00335530D02*
D03*
X00323530D02*
D03*
X00383530D02*
D03*
X00395530D02*
D03*
X00407530D02*
D03*
X00150200D02*
D03*
X00138200D02*
D03*
X00126200D02*
D03*
X00114200D02*
D03*
X00102200D02*
D03*
X00162200D02*
D03*
X00174200D02*
D03*
X00186200D02*
D03*
D19*
X00365530Y00520995D02*
D03*
X00144200D02*
D03*
D20*
X00710500Y00160000D02*
D03*
X00829500Y00640000D02*
D03*
X01334500Y00640000D02*
D03*
X01215500Y00160000D02*
D03*
D21*
X00681000Y00205000D02*
D03*
Y00200000D02*
D03*
Y00195000D02*
D03*
Y00185000D02*
D03*
Y00175000D02*
D03*
Y00165000D02*
D03*
Y00155000D02*
D03*
Y00145000D02*
D03*
Y00135000D02*
D03*
Y00125000D02*
D03*
Y00120000D02*
D03*
Y00115000D02*
D03*
X00740000Y00205000D02*
D03*
Y00200000D02*
D03*
Y00195000D02*
D03*
Y00190000D02*
D03*
Y00185000D02*
D03*
Y00180000D02*
D03*
Y00175000D02*
D03*
Y00170000D02*
D03*
Y00165000D02*
D03*
Y00160000D02*
D03*
Y00155000D02*
D03*
Y00150000D02*
D03*
Y00145000D02*
D03*
Y00140000D02*
D03*
Y00135000D02*
D03*
Y00130000D02*
D03*
Y00125000D02*
D03*
Y00120000D02*
D03*
Y00115000D02*
D03*
X00859000Y00595000D02*
D03*
Y00600000D02*
D03*
Y00605000D02*
D03*
Y00615000D02*
D03*
Y00625000D02*
D03*
Y00635000D02*
D03*
Y00645000D02*
D03*
Y00655000D02*
D03*
Y00665000D02*
D03*
Y00675000D02*
D03*
Y00680000D02*
D03*
Y00685000D02*
D03*
X00800000Y00595000D02*
D03*
Y00600000D02*
D03*
Y00605000D02*
D03*
Y00610000D02*
D03*
Y00615000D02*
D03*
Y00620000D02*
D03*
Y00625000D02*
D03*
Y00630000D02*
D03*
Y00635000D02*
D03*
Y00640000D02*
D03*
Y00645000D02*
D03*
Y00650000D02*
D03*
Y00655000D02*
D03*
Y00660000D02*
D03*
Y00665000D02*
D03*
Y00670000D02*
D03*
Y00675000D02*
D03*
Y00680000D02*
D03*
Y00685000D02*
D03*
X01364000Y00595000D02*
D03*
Y00600000D02*
D03*
Y00605000D02*
D03*
Y00615000D02*
D03*
Y00625000D02*
D03*
Y00635000D02*
D03*
Y00645000D02*
D03*
Y00655000D02*
D03*
Y00665000D02*
D03*
Y00675000D02*
D03*
Y00680000D02*
D03*
Y00685000D02*
D03*
X01305000Y00595000D02*
D03*
Y00600000D02*
D03*
Y00605000D02*
D03*
Y00610000D02*
D03*
Y00615000D02*
D03*
Y00620000D02*
D03*
Y00625000D02*
D03*
Y00630000D02*
D03*
Y00635000D02*
D03*
Y00640000D02*
D03*
Y00645000D02*
D03*
Y00650000D02*
D03*
Y00655000D02*
D03*
Y00660000D02*
D03*
Y00665000D02*
D03*
Y00670000D02*
D03*
Y00675000D02*
D03*
Y00680000D02*
D03*
Y00685000D02*
D03*
X01186000Y00205000D02*
D03*
Y00200000D02*
D03*
Y00195000D02*
D03*
Y00185000D02*
D03*
Y00175000D02*
D03*
Y00165000D02*
D03*
Y00155000D02*
D03*
Y00145000D02*
D03*
Y00135000D02*
D03*
Y00125000D02*
D03*
Y00120000D02*
D03*
Y00115000D02*
D03*
X01245000Y00205000D02*
D03*
Y00200000D02*
D03*
Y00195000D02*
D03*
Y00190000D02*
D03*
Y00185000D02*
D03*
Y00180000D02*
D03*
Y00175000D02*
D03*
Y00170000D02*
D03*
Y00165000D02*
D03*
Y00160000D02*
D03*
Y00155000D02*
D03*
Y00150000D02*
D03*
Y00145000D02*
D03*
Y00140000D02*
D03*
Y00135000D02*
D03*
Y00130000D02*
D03*
Y00125000D02*
D03*
Y00120000D02*
D03*
Y00115000D02*
D03*
D22*
X01205000Y00483250D02*
D03*
Y00596750D02*
D03*
X00700000Y00596750D02*
D03*
Y00483250D02*
D03*
X01345000Y00203250D02*
D03*
Y00316750D02*
D03*
X00840000Y00203250D02*
D03*
Y00316750D02*
D03*
D23*
X00783450Y00421750D02*
D03*
X00796150D02*
D03*
X00808850D02*
D03*
X00821550D02*
D03*
X00822566Y00477940D02*
D03*
X00809104D02*
D03*
X00795896D02*
D03*
X00782434D02*
D03*
X01288450Y00421750D02*
D03*
X01301150D02*
D03*
X01313850D02*
D03*
X01326550D02*
D03*
X01327566Y00477940D02*
D03*
X01314104D02*
D03*
X01300896D02*
D03*
X01287434D02*
D03*
X01288450Y00501750D02*
D03*
X01301150D02*
D03*
X01313850D02*
D03*
X01326550D02*
D03*
X01327566Y00557940D02*
D03*
X01314104D02*
D03*
X01300896D02*
D03*
X01287434D02*
D03*
X00757566Y00322060D02*
D03*
X00744104D02*
D03*
X00730896D02*
D03*
X00717434D02*
D03*
X00718450Y00378250D02*
D03*
X00731150D02*
D03*
X00743850D02*
D03*
X00756550D02*
D03*
X00782434Y00557940D02*
D03*
X00795896D02*
D03*
X00809104D02*
D03*
X00822566D02*
D03*
X00821550Y00501750D02*
D03*
X00808850D02*
D03*
X00796150D02*
D03*
X00783450D02*
D03*
X00757566Y00242060D02*
D03*
X00744104D02*
D03*
X00730896D02*
D03*
X00717434D02*
D03*
X00718450Y00298250D02*
D03*
X00731150D02*
D03*
X00743850D02*
D03*
X00756550D02*
D03*
X01262566Y00322060D02*
D03*
X01249104D02*
D03*
X01235896D02*
D03*
X01222434D02*
D03*
X01223450Y00378250D02*
D03*
X01236150D02*
D03*
X01248850D02*
D03*
X01261550D02*
D03*
X01262566Y00242060D02*
D03*
X01249104D02*
D03*
X01235896D02*
D03*
X01222434D02*
D03*
X01223450Y00298250D02*
D03*
X01236150D02*
D03*
X01248850D02*
D03*
X01261550D02*
D03*
D24*
X00341500Y00415961D02*
D03*
Y00458461D02*
D03*
X00160000D02*
D03*
Y00415961D02*
D03*
X01249250Y00693750D02*
D03*
Y00651250D02*
D03*
X00280000Y00576250D02*
D03*
Y00533750D02*
D03*
X00230000Y00576250D02*
D03*
Y00533750D02*
D03*
X00744250Y00693750D02*
D03*
Y00651250D02*
D03*
X01300750Y00106250D02*
D03*
Y00148750D02*
D03*
X00795750Y00106250D02*
D03*
Y00148750D02*
D03*
D25*
X00965000Y00392000D02*
D03*
Y00468000D02*
D03*
X00965000Y00293000D02*
D03*
Y00217000D02*
D03*
X00575000Y00507000D02*
D03*
Y00583000D02*
D03*
X01470000Y00293000D02*
D03*
Y00217000D02*
D03*
X01470000Y00468000D02*
D03*
Y00392000D02*
D03*
X01080000Y00583000D02*
D03*
Y00507000D02*
D03*
X01080000Y00408000D02*
D03*
Y00332000D02*
D03*
X00575000Y00408000D02*
D03*
Y00332000D02*
D03*
D26*
X01089250Y00660000D02*
D03*
X01040750D02*
D03*
X01460750Y00139750D02*
D03*
X01509250D02*
D03*
X00584250Y00660000D02*
D03*
X00535750D02*
D03*
X00955750Y00140000D02*
D03*
X01004250D02*
D03*
X00094250Y00195000D02*
D03*
X00045750D02*
D03*
X00494250Y00195000D02*
D03*
X00445750D02*
D03*
D27*
X00110000Y00283500D02*
D03*
X00130000D02*
D03*
X00150000D02*
D03*
X00170000D02*
D03*
X00330000Y00283500D02*
D03*
X00350000D02*
D03*
X00370000D02*
D03*
X00390000D02*
D03*
X00350000Y00251500D02*
D03*
X00370000D02*
D03*
X00390000D02*
D03*
X00410000D02*
D03*
X00130000Y00251500D02*
D03*
X00150000D02*
D03*
X00170000D02*
D03*
X00190000D02*
D03*
D28*
X00140000Y00335000D02*
D03*
X00360000Y00335000D02*
D03*
X00380000Y00200000D02*
D03*
X00160000Y00200000D02*
D03*
D29*
X00212500Y00475000D02*
D03*
X00227500D02*
D03*
X00272500D02*
D03*
X00287500D02*
D03*
X01346545Y00720256D02*
D03*
X01361545D02*
D03*
X00856545Y00720256D02*
D03*
X00841545D02*
D03*
X01188455Y00079744D02*
D03*
X01203455D02*
D03*
X00683455D02*
D03*
X00698455D02*
D03*
D30*
X00260922Y00118440D02*
D03*
Y00133440D02*
D03*
X00207060Y00401290D02*
D03*
Y00386290D02*
D03*
X00295212Y00118440D02*
D03*
Y00133440D02*
D03*
X00244412Y00133440D02*
D03*
Y00118440D02*
D03*
X00278702Y00133440D02*
D03*
Y00118440D02*
D03*
X00287070Y00401290D02*
D03*
Y00386290D02*
D03*
X01312500Y00705000D02*
D03*
Y00720000D02*
D03*
X00807500Y00705000D02*
D03*
Y00720000D02*
D03*
X00732500Y00095000D02*
D03*
Y00080000D02*
D03*
D31*
X00260802Y00152610D02*
D03*
X00245802D02*
D03*
X00293822D02*
D03*
X00278822D02*
D03*
X00223690Y00401290D02*
D03*
X00238690D02*
D03*
X00255440D02*
D03*
X00270440D02*
D03*
X01280000Y00705000D02*
D03*
X01295000D02*
D03*
X01346425Y00704505D02*
D03*
X01361425D02*
D03*
X00841425Y00704506D02*
D03*
X00856425D02*
D03*
X00775000Y00705000D02*
D03*
X00790000D02*
D03*
X00698575Y00095494D02*
D03*
X00683575D02*
D03*
X01203575D02*
D03*
X01188575D02*
D03*
X00750000Y00095000D02*
D03*
X00765000D02*
D03*
D32*
X00312463Y00194753D02*
D03*
Y00209753D02*
D03*
X00216091Y00193018D02*
D03*
Y00178018D02*
D03*
X00216091Y00213791D02*
D03*
Y00228791D02*
D03*
X00875000Y00705000D02*
D03*
Y00720000D02*
D03*
X00777800Y00664956D02*
D03*
Y00679956D02*
D03*
X00879174Y00602783D02*
D03*
Y00587783D02*
D03*
X01295000Y00737500D02*
D03*
Y00722500D02*
D03*
X00790000Y00737500D02*
D03*
Y00722500D02*
D03*
X01236000Y00080250D02*
D03*
Y00095250D02*
D03*
X01329795Y00705005D02*
D03*
Y00720005D02*
D03*
X00824795Y00705005D02*
D03*
Y00720005D02*
D03*
X01282800Y00664956D02*
D03*
Y00679956D02*
D03*
X01165826Y00197216D02*
D03*
Y00212216D02*
D03*
X01170000Y00095000D02*
D03*
Y00080000D02*
D03*
X01267200Y00135044D02*
D03*
Y00120044D02*
D03*
X00660826Y00197216D02*
D03*
Y00212216D02*
D03*
X00762200Y00135044D02*
D03*
Y00120044D02*
D03*
X00665000Y00095000D02*
D03*
Y00080000D02*
D03*
X00750000Y00062500D02*
D03*
Y00077500D02*
D03*
X01220205Y00094994D02*
D03*
Y00079994D02*
D03*
X00715205Y00094994D02*
D03*
Y00079994D02*
D03*
X00280000Y00622500D02*
D03*
Y00607500D02*
D03*
X00230000Y00622500D02*
D03*
Y00607500D02*
D03*
X01380000Y00720000D02*
D03*
Y00705000D02*
D03*
X01384174Y00587783D02*
D03*
Y00602783D02*
D03*
D33*
X00266830Y00199830D02*
D03*
D34*
X00286080Y00209830D02*
D03*
Y00204830D02*
D03*
Y00199830D02*
D03*
Y00194830D02*
D03*
Y00189830D02*
D03*
X00247580Y00189830D02*
D03*
Y00194830D02*
D03*
Y00199830D02*
D03*
Y00204830D02*
D03*
Y00209830D02*
D03*
D35*
X00256830Y00219080D02*
D03*
X00261830D02*
D03*
X00266830D02*
D03*
X00271830D02*
D03*
X00276830D02*
D03*
Y00180580D02*
D03*
X00271830D02*
D03*
X00266830D02*
D03*
X00261830D02*
D03*
X00256830D02*
D03*
D36*
X00917500Y00624758D02*
D03*
Y00595242D02*
D03*
X01422500Y00624758D02*
D03*
Y00595242D02*
D03*
X01127500Y00175242D02*
D03*
Y00204758D02*
D03*
X00622500Y00175242D02*
D03*
Y00204758D02*
D03*
D37*
X01376500Y00542900D02*
D03*
X00668500Y00257100D02*
D03*
X00871500Y00542900D02*
D03*
X01173500Y00257100D02*
D03*
D38*
X01442500Y00565800D02*
D03*
Y00520000D02*
D03*
X00602500Y00280000D02*
D03*
Y00234200D02*
D03*
X00937500Y00520000D02*
D03*
Y00565800D02*
D03*
X01107500Y00280000D02*
D03*
Y00234200D02*
D03*
D39*
X00365530Y00553995D02*
D03*
X00144200Y00553995D02*
D03*
D40*
X00365530Y00499495D02*
D03*
X00144200Y00499495D02*
D03*
D41*
X00359530Y00601495D02*
D03*
X00138200D02*
D03*
M02*
