G04*
G04 #@! TF.GenerationSoftware,Altium Limited,Altium Designer,25.4.2 (15)*
G04*
G04 Layer_Color=8388736*
%FSAX44Y44*%
%MOMM*%
G71*
G04*
G04 #@! TF.SameCoordinates,DDFFB4A4-4E3D-46BD-814A-B4F9BFA491BB*
G04*
G04*
G04 #@! TF.FilePolarity,Negative*
G04*
G01*
G75*
G04:AMPARAMS|DCode=15|XSize=1.5404mm|YSize=0.2525mm|CornerRadius=0.1262mm|HoleSize=0mm|Usage=FLASHONLY|Rotation=180.000|XOffset=0mm|YOffset=0mm|HoleType=Round|Shape=RoundedRectangle|*
%AMROUNDEDRECTD15*
21,1,1.5404,0.0000,0,0,180.0*
21,1,1.2880,0.2525,0,0,180.0*
1,1,0.2525,-0.6440,0.0000*
1,1,0.2525,0.6440,0.0000*
1,1,0.2525,0.6440,0.0000*
1,1,0.2525,-0.6440,0.0000*
%
%ADD15ROUNDEDRECTD15*%
%ADD16R,1.5404X0.2525*%
%ADD36R,1.9062X1.5546*%
%ADD42R,5.5000X2.0500*%
%ADD43R,0.9000X2.9000*%
%ADD44R,8.8000X3.0000*%
%ADD45R,2.8400X4.8500*%
%ADD46O,1.4400X0.3550*%
%ADD47R,5.6000X3.7500*%
%ADD48R,0.7500X1.3000*%
%ADD49R,3.5500X3.2000*%
%ADD50R,2.4000X4.6500*%
%ADD51R,2.0500X5.5000*%
%ADD52R,1.4000X1.7000*%
%ADD53R,7.2500X6.1000*%
%ADD54R,1.1500X1.1000*%
%ADD55R,1.0500X1.0500*%
%ADD56R,1.0500X1.0500*%
%ADD57R,1.1000X1.1500*%
%ADD58R,2.1000X2.1000*%
G04:AMPARAMS|DCode=59|XSize=0.85mm|YSize=0.35mm|CornerRadius=0.1125mm|HoleSize=0mm|Usage=FLASHONLY|Rotation=180.000|XOffset=0mm|YOffset=0mm|HoleType=Round|Shape=RoundedRectangle|*
%AMROUNDEDRECTD59*
21,1,0.8500,0.1250,0,0,180.0*
21,1,0.6250,0.3500,0,0,180.0*
1,1,0.2250,-0.3125,0.0625*
1,1,0.2250,0.3125,0.0625*
1,1,0.2250,0.3125,-0.0625*
1,1,0.2250,-0.3125,-0.0625*
%
%ADD59ROUNDEDRECTD59*%
G04:AMPARAMS|DCode=60|XSize=0.85mm|YSize=0.35mm|CornerRadius=0.1125mm|HoleSize=0mm|Usage=FLASHONLY|Rotation=270.000|XOffset=0mm|YOffset=0mm|HoleType=Round|Shape=RoundedRectangle|*
%AMROUNDEDRECTD60*
21,1,0.8500,0.1250,0,0,270.0*
21,1,0.6250,0.3500,0,0,270.0*
1,1,0.2250,-0.0625,-0.3125*
1,1,0.2250,-0.0625,0.3125*
1,1,0.2250,0.0625,0.3125*
1,1,0.2250,0.0625,-0.3125*
%
%ADD60ROUNDEDRECTD60*%
%ADD61R,6.9000X5.6000*%
%ADD62R,1.8000X1.0500*%
%ADD63R,9.8000X3.8000*%
%ADD64R,10.2000X1.5000*%
%ADD65R,8.1000X0.9000*%
%ADD66C,2.1000*%
%ADD67O,3.3000X0.1000*%
G36*
X00826098Y00564743D02*
X00826192Y00564714D01*
X00826279Y00564668D01*
X00826355Y00564605D01*
X00826418Y00564529D01*
X00826464Y00564442D01*
X00826493Y00564348D01*
X00826503Y00564250D01*
Y00559250D01*
D01*
Y00517300D01*
X00826493Y00517202D01*
X00826464Y00517108D01*
X00826418Y00517021D01*
X00826355Y00516945D01*
X00826279Y00516882D01*
X00826192Y00516836D01*
X00826098Y00516807D01*
X00826000Y00516797D01*
X00779000D01*
X00778902Y00516807D01*
X00778808Y00516836D01*
X00778721Y00516882D01*
X00778645Y00516945D01*
X00778582Y00517021D01*
X00778536Y00517108D01*
X00778507Y00517202D01*
X00778498Y00517300D01*
Y00559250D01*
Y00564250D01*
X00778507Y00564348D01*
X00778536Y00564442D01*
X00778582Y00564529D01*
X00778645Y00564605D01*
X00778721Y00564668D01*
X00778808Y00564714D01*
X00778902Y00564743D01*
X00779000Y00564752D01*
X00786000D01*
X00786098Y00564743D01*
X00786192Y00564714D01*
X00786279Y00564668D01*
X00786355Y00564605D01*
X00786418Y00564529D01*
X00786464Y00564442D01*
X00786493Y00564348D01*
X00786503Y00564250D01*
Y00559752D01*
X00791848D01*
Y00564250D01*
X00791857Y00564348D01*
X00791886Y00564442D01*
X00791932Y00564529D01*
X00791995Y00564605D01*
X00792071Y00564668D01*
X00792158Y00564714D01*
X00792252Y00564743D01*
X00792350Y00564752D01*
X00799350D01*
X00799448Y00564743D01*
X00799542Y00564714D01*
X00799629Y00564668D01*
X00799705Y00564605D01*
X00799768Y00564529D01*
X00799814Y00564442D01*
X00799843Y00564348D01*
X00799853Y00564250D01*
Y00559752D01*
X00805148D01*
Y00564250D01*
X00805157Y00564348D01*
X00805186Y00564442D01*
X00805232Y00564529D01*
X00805295Y00564605D01*
X00805371Y00564668D01*
X00805458Y00564714D01*
X00805552Y00564743D01*
X00805650Y00564752D01*
X00812650D01*
X00812748Y00564743D01*
X00812842Y00564714D01*
X00812929Y00564668D01*
X00813005Y00564605D01*
X00813068Y00564529D01*
X00813114Y00564442D01*
X00813143Y00564348D01*
X00813152Y00564250D01*
Y00559752D01*
X00818498D01*
Y00564250D01*
X00818507Y00564348D01*
X00818536Y00564442D01*
X00818582Y00564529D01*
X00818645Y00564605D01*
X00818721Y00564668D01*
X00818808Y00564714D01*
X00818902Y00564743D01*
X00819000Y00564752D01*
X00826000D01*
X00826098Y00564743D01*
D02*
G37*
G36*
X01331098Y00564743D02*
X01331192Y00564714D01*
X01331279Y00564668D01*
X01331355Y00564605D01*
X01331418Y00564529D01*
X01331464Y00564442D01*
X01331493Y00564348D01*
X01331503Y00564250D01*
Y00559250D01*
Y00517300D01*
X01331493Y00517202D01*
X01331464Y00517108D01*
X01331418Y00517021D01*
X01331355Y00516945D01*
X01331279Y00516882D01*
X01331192Y00516836D01*
X01331098Y00516807D01*
X01331000Y00516797D01*
X01284000D01*
X01283902Y00516807D01*
X01283808Y00516836D01*
X01283721Y00516882D01*
X01283645Y00516945D01*
X01283582Y00517021D01*
X01283536Y00517108D01*
X01283507Y00517202D01*
X01283498Y00517300D01*
Y00559250D01*
Y00564250D01*
X01283507Y00564348D01*
X01283536Y00564442D01*
X01283582Y00564529D01*
X01283645Y00564605D01*
X01283721Y00564668D01*
X01283808Y00564714D01*
X01283902Y00564743D01*
X01284000Y00564752D01*
X01291000D01*
X01291098Y00564743D01*
X01291192Y00564714D01*
X01291279Y00564668D01*
X01291355Y00564605D01*
X01291418Y00564529D01*
X01291464Y00564442D01*
X01291493Y00564348D01*
X01291503Y00564250D01*
Y00559752D01*
X01296848D01*
Y00564250D01*
X01296857Y00564348D01*
X01296886Y00564442D01*
X01296932Y00564529D01*
X01296995Y00564605D01*
X01297071Y00564668D01*
X01297158Y00564714D01*
X01297252Y00564743D01*
X01297350Y00564752D01*
X01304350D01*
X01304448Y00564743D01*
X01304542Y00564714D01*
X01304629Y00564668D01*
X01304705Y00564605D01*
X01304768Y00564529D01*
X01304814Y00564442D01*
X01304843Y00564348D01*
X01304852Y00564250D01*
Y00559752D01*
X01310148D01*
Y00564250D01*
X01310157Y00564348D01*
X01310186Y00564442D01*
X01310232Y00564529D01*
X01310295Y00564605D01*
X01310371Y00564668D01*
X01310458Y00564714D01*
X01310552Y00564743D01*
X01310650Y00564752D01*
X01317650D01*
X01317748Y00564743D01*
X01317842Y00564714D01*
X01317929Y00564668D01*
X01318005Y00564605D01*
X01318068Y00564529D01*
X01318114Y00564442D01*
X01318143Y00564348D01*
X01318152Y00564250D01*
Y00559752D01*
X01323498D01*
Y00564250D01*
X01323507Y00564348D01*
X01323536Y00564442D01*
X01323582Y00564529D01*
X01323645Y00564605D01*
X01323721Y00564668D01*
X01323808Y00564714D01*
X01323902Y00564743D01*
X01324000Y00564752D01*
X01331000D01*
X01331098Y00564743D01*
D02*
G37*
G36*
X00826098Y00484743D02*
X00826192Y00484714D01*
X00826279Y00484668D01*
X00826355Y00484605D01*
X00826418Y00484529D01*
X00826464Y00484442D01*
X00826493Y00484348D01*
X00826503Y00484250D01*
Y00479250D01*
Y00437300D01*
X00826493Y00437202D01*
X00826464Y00437108D01*
X00826418Y00437021D01*
X00826355Y00436945D01*
X00826279Y00436882D01*
X00826192Y00436836D01*
X00826098Y00436807D01*
X00826000Y00436797D01*
X00779000D01*
X00778902Y00436807D01*
X00778808Y00436836D01*
X00778721Y00436882D01*
X00778645Y00436945D01*
X00778582Y00437021D01*
X00778536Y00437108D01*
X00778507Y00437202D01*
X00778498Y00437300D01*
Y00479250D01*
Y00484250D01*
X00778507Y00484348D01*
X00778536Y00484442D01*
X00778582Y00484529D01*
X00778645Y00484605D01*
X00778721Y00484668D01*
X00778808Y00484714D01*
X00778902Y00484743D01*
X00779000Y00484752D01*
X00786000D01*
X00786098Y00484743D01*
X00786192Y00484714D01*
X00786279Y00484668D01*
X00786355Y00484605D01*
X00786418Y00484529D01*
X00786464Y00484442D01*
X00786493Y00484348D01*
X00786503Y00484250D01*
Y00479752D01*
X00791848D01*
Y00484250D01*
X00791857Y00484348D01*
X00791886Y00484442D01*
X00791932Y00484529D01*
X00791995Y00484605D01*
X00792071Y00484668D01*
X00792158Y00484714D01*
X00792252Y00484743D01*
X00792350Y00484752D01*
X00799350D01*
X00799448Y00484743D01*
X00799542Y00484714D01*
X00799629Y00484668D01*
X00799705Y00484605D01*
X00799768Y00484529D01*
X00799814Y00484442D01*
X00799843Y00484348D01*
X00799853Y00484250D01*
Y00479752D01*
X00805148D01*
Y00484250D01*
X00805157Y00484348D01*
X00805186Y00484442D01*
X00805232Y00484529D01*
X00805295Y00484605D01*
X00805371Y00484668D01*
X00805458Y00484714D01*
X00805552Y00484743D01*
X00805650Y00484752D01*
X00812650D01*
X00812748Y00484743D01*
X00812842Y00484714D01*
X00812929Y00484668D01*
X00813005Y00484605D01*
X00813068Y00484529D01*
X00813114Y00484442D01*
X00813143Y00484348D01*
X00813152Y00484250D01*
Y00479752D01*
X00818498D01*
Y00484250D01*
X00818507Y00484348D01*
X00818536Y00484442D01*
X00818582Y00484529D01*
X00818645Y00484605D01*
X00818721Y00484668D01*
X00818808Y00484714D01*
X00818902Y00484743D01*
X00819000Y00484752D01*
X00826000D01*
X00826098Y00484743D01*
D02*
G37*
G36*
X01331098Y00484743D02*
X01331192Y00484714D01*
X01331279Y00484668D01*
X01331355Y00484605D01*
X01331418Y00484529D01*
X01331464Y00484442D01*
X01331493Y00484348D01*
X01331503Y00484250D01*
Y00479250D01*
Y00437300D01*
X01331493Y00437202D01*
X01331464Y00437108D01*
X01331418Y00437021D01*
X01331355Y00436945D01*
X01331279Y00436882D01*
X01331192Y00436836D01*
X01331098Y00436807D01*
X01331000Y00436797D01*
X01284000D01*
X01283902Y00436807D01*
X01283808Y00436836D01*
X01283721Y00436882D01*
X01283645Y00436945D01*
X01283582Y00437021D01*
X01283536Y00437108D01*
X01283507Y00437202D01*
X01283498Y00437300D01*
Y00479250D01*
Y00484250D01*
X01283507Y00484348D01*
X01283536Y00484442D01*
X01283582Y00484529D01*
X01283645Y00484605D01*
X01283721Y00484668D01*
X01283808Y00484714D01*
X01283902Y00484743D01*
X01284000Y00484752D01*
X01291000D01*
X01291098Y00484743D01*
X01291192Y00484714D01*
X01291279Y00484668D01*
X01291355Y00484605D01*
X01291418Y00484529D01*
X01291464Y00484442D01*
X01291493Y00484348D01*
X01291503Y00484250D01*
Y00479752D01*
X01296848D01*
Y00484250D01*
X01296857Y00484348D01*
X01296886Y00484442D01*
X01296932Y00484529D01*
X01296995Y00484605D01*
X01297071Y00484668D01*
X01297158Y00484714D01*
X01297252Y00484743D01*
X01297350Y00484752D01*
X01304350D01*
X01304448Y00484743D01*
X01304542Y00484714D01*
X01304629Y00484668D01*
X01304705Y00484605D01*
X01304768Y00484529D01*
X01304814Y00484442D01*
X01304843Y00484348D01*
X01304852Y00484250D01*
Y00479752D01*
X01310148D01*
Y00484250D01*
X01310157Y00484348D01*
X01310186Y00484442D01*
X01310232Y00484529D01*
X01310295Y00484605D01*
X01310371Y00484668D01*
X01310458Y00484714D01*
X01310552Y00484743D01*
X01310650Y00484752D01*
X01317650D01*
X01317748Y00484743D01*
X01317842Y00484714D01*
X01317929Y00484668D01*
X01318005Y00484605D01*
X01318068Y00484529D01*
X01318114Y00484442D01*
X01318143Y00484348D01*
X01318152Y00484250D01*
Y00479752D01*
X01323498D01*
Y00484250D01*
X01323507Y00484348D01*
X01323536Y00484442D01*
X01323582Y00484529D01*
X01323645Y00484605D01*
X01323721Y00484668D01*
X01323808Y00484714D01*
X01323902Y00484743D01*
X01324000Y00484752D01*
X01331000D01*
X01331098Y00484743D01*
D02*
G37*
G36*
X01266098Y00363193D02*
X01266192Y00363164D01*
X01266279Y00363118D01*
X01266355Y00363055D01*
X01266418Y00362979D01*
X01266464Y00362892D01*
X01266493Y00362798D01*
X01266502Y00362700D01*
Y00320750D01*
Y00315750D01*
X01266493Y00315652D01*
X01266464Y00315558D01*
X01266418Y00315471D01*
X01266355Y00315395D01*
X01266279Y00315332D01*
X01266192Y00315286D01*
X01266098Y00315257D01*
X01266000Y00315248D01*
X01259000D01*
X01258902Y00315257D01*
X01258808Y00315286D01*
X01258721Y00315332D01*
X01258645Y00315395D01*
X01258582Y00315471D01*
X01258536Y00315558D01*
X01258507Y00315652D01*
X01258497Y00315750D01*
Y00320248D01*
X01253152D01*
Y00315750D01*
X01253143Y00315652D01*
X01253114Y00315558D01*
X01253068Y00315471D01*
X01253005Y00315395D01*
X01252929Y00315332D01*
X01252842Y00315286D01*
X01252748Y00315257D01*
X01252650Y00315248D01*
X01245650D01*
X01245552Y00315257D01*
X01245458Y00315286D01*
X01245371Y00315332D01*
X01245295Y00315395D01*
X01245232Y00315471D01*
X01245186Y00315558D01*
X01245157Y00315652D01*
X01245147Y00315750D01*
Y00320248D01*
X01239852D01*
Y00315750D01*
X01239843Y00315652D01*
X01239814Y00315558D01*
X01239768Y00315471D01*
X01239705Y00315395D01*
X01239629Y00315332D01*
X01239542Y00315286D01*
X01239448Y00315257D01*
X01239350Y00315248D01*
X01232350D01*
X01232252Y00315257D01*
X01232158Y00315286D01*
X01232071Y00315332D01*
X01231995Y00315395D01*
X01231932Y00315471D01*
X01231886Y00315558D01*
X01231857Y00315652D01*
X01231848Y00315750D01*
Y00320248D01*
X01226502D01*
Y00315750D01*
X01226493Y00315652D01*
X01226464Y00315558D01*
X01226418Y00315471D01*
X01226355Y00315395D01*
X01226279Y00315332D01*
X01226192Y00315286D01*
X01226098Y00315257D01*
X01226000Y00315248D01*
X01219000D01*
X01218902Y00315257D01*
X01218808Y00315286D01*
X01218721Y00315332D01*
X01218645Y00315395D01*
X01218582Y00315471D01*
X01218536Y00315558D01*
X01218507Y00315652D01*
X01218497Y00315750D01*
Y00320750D01*
Y00362700D01*
X01218507Y00362798D01*
X01218536Y00362892D01*
X01218582Y00362979D01*
X01218645Y00363055D01*
X01218721Y00363118D01*
X01218808Y00363164D01*
X01218902Y00363193D01*
X01219000Y00363202D01*
X01266000D01*
X01266098Y00363193D01*
D02*
G37*
G36*
X00761098D02*
X00761192Y00363164D01*
X00761279Y00363118D01*
X00761355Y00363055D01*
X00761418Y00362979D01*
X00761464Y00362892D01*
X00761493Y00362798D01*
X00761502Y00362700D01*
Y00320750D01*
Y00315750D01*
X00761493Y00315652D01*
X00761464Y00315558D01*
X00761418Y00315471D01*
X00761355Y00315395D01*
X00761279Y00315332D01*
X00761192Y00315286D01*
X00761098Y00315257D01*
X00761000Y00315248D01*
X00754000D01*
X00753902Y00315257D01*
X00753808Y00315286D01*
X00753721Y00315332D01*
X00753645Y00315395D01*
X00753582Y00315471D01*
X00753536Y00315558D01*
X00753507Y00315652D01*
X00753497Y00315750D01*
Y00320248D01*
X00748152D01*
Y00315750D01*
X00748143Y00315652D01*
X00748114Y00315558D01*
X00748068Y00315471D01*
X00748005Y00315395D01*
X00747929Y00315332D01*
X00747842Y00315286D01*
X00747748Y00315257D01*
X00747650Y00315248D01*
X00740650D01*
X00740552Y00315257D01*
X00740458Y00315286D01*
X00740371Y00315332D01*
X00740295Y00315395D01*
X00740232Y00315471D01*
X00740186Y00315558D01*
X00740157Y00315652D01*
X00740147Y00315750D01*
Y00320248D01*
X00734852D01*
Y00315750D01*
X00734843Y00315652D01*
X00734814Y00315558D01*
X00734768Y00315471D01*
X00734705Y00315395D01*
X00734629Y00315332D01*
X00734542Y00315286D01*
X00734448Y00315257D01*
X00734350Y00315248D01*
X00727350D01*
X00727252Y00315257D01*
X00727158Y00315286D01*
X00727071Y00315332D01*
X00726995Y00315395D01*
X00726932Y00315471D01*
X00726886Y00315558D01*
X00726857Y00315652D01*
X00726848Y00315750D01*
Y00320248D01*
X00721502D01*
Y00315750D01*
X00721493Y00315652D01*
X00721464Y00315558D01*
X00721418Y00315471D01*
X00721355Y00315395D01*
X00721279Y00315332D01*
X00721192Y00315286D01*
X00721098Y00315257D01*
X00721000Y00315248D01*
X00714000D01*
X00713902Y00315257D01*
X00713808Y00315286D01*
X00713721Y00315332D01*
X00713645Y00315395D01*
X00713582Y00315471D01*
X00713536Y00315558D01*
X00713507Y00315652D01*
X00713497Y00315750D01*
Y00320750D01*
Y00362700D01*
X00713507Y00362798D01*
X00713536Y00362892D01*
X00713582Y00362979D01*
X00713645Y00363055D01*
X00713721Y00363118D01*
X00713808Y00363164D01*
X00713902Y00363193D01*
X00714000Y00363202D01*
X00761000D01*
X00761098Y00363193D01*
D02*
G37*
G36*
X01266098Y00283193D02*
X01266192Y00283164D01*
X01266279Y00283118D01*
X01266355Y00283055D01*
X01266418Y00282979D01*
X01266464Y00282892D01*
X01266493Y00282798D01*
X01266502Y00282700D01*
Y00240750D01*
Y00235750D01*
X01266493Y00235652D01*
X01266464Y00235558D01*
X01266418Y00235471D01*
X01266355Y00235395D01*
X01266279Y00235332D01*
X01266192Y00235286D01*
X01266098Y00235257D01*
X01266000Y00235248D01*
X01259000D01*
X01258902Y00235257D01*
X01258808Y00235286D01*
X01258721Y00235332D01*
X01258645Y00235395D01*
X01258582Y00235471D01*
X01258536Y00235558D01*
X01258507Y00235652D01*
X01258497Y00235750D01*
Y00240248D01*
X01253152D01*
Y00235750D01*
X01253143Y00235652D01*
X01253114Y00235558D01*
X01253068Y00235471D01*
X01253005Y00235395D01*
X01252929Y00235332D01*
X01252842Y00235286D01*
X01252748Y00235257D01*
X01252650Y00235248D01*
X01245650D01*
X01245552Y00235257D01*
X01245458Y00235286D01*
X01245371Y00235332D01*
X01245295Y00235395D01*
X01245232Y00235471D01*
X01245186Y00235558D01*
X01245157Y00235652D01*
X01245147Y00235750D01*
Y00240248D01*
X01239852D01*
Y00235750D01*
X01239843Y00235652D01*
X01239814Y00235558D01*
X01239768Y00235471D01*
X01239705Y00235395D01*
X01239629Y00235332D01*
X01239542Y00235286D01*
X01239448Y00235257D01*
X01239350Y00235248D01*
X01232350D01*
X01232252Y00235257D01*
X01232158Y00235286D01*
X01232071Y00235332D01*
X01231995Y00235395D01*
X01231932Y00235471D01*
X01231886Y00235558D01*
X01231857Y00235652D01*
X01231848Y00235750D01*
Y00240248D01*
X01226502D01*
Y00235750D01*
X01226493Y00235652D01*
X01226464Y00235558D01*
X01226418Y00235471D01*
X01226355Y00235395D01*
X01226279Y00235332D01*
X01226192Y00235286D01*
X01226098Y00235257D01*
X01226000Y00235248D01*
X01219000D01*
X01218902Y00235257D01*
X01218808Y00235286D01*
X01218721Y00235332D01*
X01218645Y00235395D01*
X01218582Y00235471D01*
X01218536Y00235558D01*
X01218507Y00235652D01*
X01218497Y00235750D01*
Y00240750D01*
Y00282700D01*
X01218507Y00282798D01*
X01218536Y00282892D01*
X01218582Y00282979D01*
X01218645Y00283055D01*
X01218721Y00283118D01*
X01218808Y00283164D01*
X01218902Y00283193D01*
X01219000Y00283202D01*
X01266000D01*
X01266098Y00283193D01*
D02*
G37*
G36*
X00761098D02*
X00761192Y00283164D01*
X00761279Y00283118D01*
X00761355Y00283055D01*
X00761418Y00282979D01*
X00761464Y00282892D01*
X00761493Y00282798D01*
X00761502Y00282700D01*
Y00240750D01*
Y00235750D01*
X00761493Y00235652D01*
X00761464Y00235558D01*
X00761418Y00235471D01*
X00761355Y00235395D01*
X00761279Y00235332D01*
X00761192Y00235286D01*
X00761098Y00235257D01*
X00761000Y00235248D01*
X00754000D01*
X00753902Y00235257D01*
X00753808Y00235286D01*
X00753721Y00235332D01*
X00753645Y00235395D01*
X00753582Y00235471D01*
X00753536Y00235558D01*
X00753507Y00235652D01*
X00753497Y00235750D01*
Y00240248D01*
X00748152D01*
Y00235750D01*
X00748143Y00235652D01*
X00748114Y00235558D01*
X00748068Y00235471D01*
X00748005Y00235395D01*
X00747929Y00235332D01*
X00747842Y00235286D01*
X00747748Y00235257D01*
X00747650Y00235248D01*
X00740650D01*
X00740552Y00235257D01*
X00740458Y00235286D01*
X00740371Y00235332D01*
X00740295Y00235395D01*
X00740232Y00235471D01*
X00740186Y00235558D01*
X00740157Y00235652D01*
X00740147Y00235750D01*
Y00240248D01*
X00734852D01*
Y00235750D01*
X00734843Y00235652D01*
X00734814Y00235558D01*
X00734768Y00235471D01*
X00734705Y00235395D01*
X00734629Y00235332D01*
X00734542Y00235286D01*
X00734448Y00235257D01*
X00734350Y00235248D01*
X00727350D01*
X00727252Y00235257D01*
X00727158Y00235286D01*
X00727071Y00235332D01*
X00726995Y00235395D01*
X00726932Y00235471D01*
X00726886Y00235558D01*
X00726857Y00235652D01*
X00726848Y00235750D01*
Y00240248D01*
X00721502D01*
Y00235750D01*
X00721493Y00235652D01*
X00721464Y00235558D01*
X00721418Y00235471D01*
X00721355Y00235395D01*
X00721279Y00235332D01*
X00721192Y00235286D01*
X00721098Y00235257D01*
X00721000Y00235248D01*
X00714000D01*
X00713902Y00235257D01*
X00713808Y00235286D01*
X00713721Y00235332D01*
X00713645Y00235395D01*
X00713582Y00235471D01*
X00713536Y00235558D01*
X00713507Y00235652D01*
X00713497Y00235750D01*
Y00240750D01*
Y00282700D01*
X00713507Y00282798D01*
X00713536Y00282892D01*
X00713582Y00282979D01*
X00713645Y00283055D01*
X00713721Y00283118D01*
X00713808Y00283164D01*
X00713902Y00283193D01*
X00714000Y00283202D01*
X00761000D01*
X00761098Y00283193D01*
D02*
G37*
G36*
X00278720Y00212579D02*
X00278777Y00212573D01*
X00278777Y00212573D01*
X00278777D01*
X00278817Y00212561D01*
X00278871Y00212545D01*
X00278871Y00212545D01*
X00278871Y00212544D01*
X00279055Y00212468D01*
X00279056Y00212468D01*
D01*
X00279067Y00212462D01*
X00279142Y00212422D01*
X00279151Y00212415D01*
X00279219Y00212359D01*
X00279359Y00212219D01*
X00279359Y00212218D01*
D01*
X00279364Y00212213D01*
X00279422Y00212143D01*
X00279422Y00212142D01*
X00279422Y00212142D01*
X00279446Y00212097D01*
X00279468Y00212056D01*
X00279468Y00212056D01*
X00279468Y00212055D01*
X00279544Y00211871D01*
X00279544Y00211871D01*
X00279544Y00211871D01*
X00279557Y00211830D01*
X00279573Y00211777D01*
X00279573Y00211777D01*
Y00211777D01*
X00279576Y00211749D01*
X00279583Y00211679D01*
Y00211679D01*
Y00211679D01*
X00279582Y00211579D01*
X00279583Y00188080D01*
D01*
X00279583Y00187980D01*
X00279583Y00187980D01*
X00279583Y00187980D01*
X00279579Y00187937D01*
X00279573Y00187882D01*
X00279573Y00187882D01*
X00279573Y00187882D01*
X00279561Y00187841D01*
X00279545Y00187788D01*
X00279545Y00187788D01*
X00279545Y00187788D01*
X00279469Y00187604D01*
X00279468Y00187604D01*
X00279468Y00187603D01*
X00279448Y00187565D01*
X00279422Y00187517D01*
X00279422Y00187517D01*
X00279422Y00187517D01*
X00279384Y00187470D01*
X00279360Y00187441D01*
X00279359Y00187441D01*
X00279359Y00187440D01*
X00279219Y00187300D01*
X00279218Y00187300D01*
X00279218Y00187300D01*
X00279177Y00187266D01*
X00279142Y00187238D01*
X00279142Y00187237D01*
X00279142Y00187237D01*
X00279081Y00187205D01*
X00279055Y00187191D01*
X00279055Y00187191D01*
X00279055Y00187191D01*
X00278871Y00187115D01*
X00278871Y00187115D01*
X00278871Y00187115D01*
X00278840Y00187106D01*
X00278777Y00187087D01*
X00278776Y00187087D01*
X00278776Y00187087D01*
X00278712Y00187081D01*
X00278679Y00187078D01*
X00278678Y00187078D01*
X00278678Y00187077D01*
X00278580Y00187078D01*
X00278580Y00187078D01*
X00258580Y00187078D01*
X00258461Y00187078D01*
X00258461D01*
X00258461D01*
X00258417Y00187082D01*
X00258363Y00187087D01*
X00258363Y00187087D01*
X00258363D01*
X00258130Y00187134D01*
X00258130Y00187134D01*
X00258058Y00187155D01*
X00258036Y00187162D01*
X00258036Y00187162D01*
X00258036Y00187162D01*
X00257816Y00187253D01*
D01*
X00257816Y00187253D01*
X00257764Y00187281D01*
X00257729Y00187300D01*
X00257729Y00187300D01*
X00257729Y00187300D01*
X00257531Y00187432D01*
X00257531Y00187432D01*
X00257531Y00187432D01*
X00257510Y00187450D01*
X00257455Y00187494D01*
X00257455Y00187494D01*
X00257455Y00187494D01*
X00257372Y00187578D01*
X00257371Y00187578D01*
X00254579Y00190371D01*
X00254495Y00190455D01*
Y00190455D01*
X00254495D01*
X00254481Y00190471D01*
X00254432Y00190531D01*
X00254432Y00190531D01*
X00254300Y00190729D01*
X00254300Y00190729D01*
X00254300Y00190729D01*
X00254274Y00190777D01*
X00254253Y00190816D01*
X00254253Y00190816D01*
X00254253Y00190816D01*
X00254162Y00191035D01*
D01*
X00254162Y00191035D01*
X00254153Y00191064D01*
X00254133Y00191130D01*
X00254133Y00191130D01*
X00254087Y00191363D01*
Y00191363D01*
X00254087Y00191363D01*
X00254082Y00191413D01*
X00254077Y00191461D01*
Y00191461D01*
Y00191461D01*
Y00191580D01*
X00254077Y00191580D01*
Y00191581D01*
D01*
X00254078Y00211580D01*
Y00211679D01*
Y00211679D01*
Y00211679D01*
X00254083Y00211727D01*
X00254088Y00211777D01*
X00254088Y00211777D01*
Y00211777D01*
X00254102Y00211826D01*
X00254116Y00211871D01*
X00254116Y00211871D01*
X00254116Y00211871D01*
X00254193Y00212055D01*
X00254193Y00212055D01*
X00254193Y00212055D01*
X00254213Y00212093D01*
X00254239Y00212142D01*
X00254239Y00212142D01*
X00254239Y00212142D01*
X00254257Y00212164D01*
X00254301Y00212218D01*
X00254301Y00212218D01*
X00254301Y00212218D01*
X00254442Y00212359D01*
X00254519Y00212421D01*
X00254605Y00212468D01*
X00254605Y00212468D01*
X00254789Y00212544D01*
X00254789Y00212544D01*
X00254789Y00212544D01*
X00254835Y00212558D01*
X00254883Y00212572D01*
X00254883D01*
X00254884Y00212572D01*
X00254982Y00212582D01*
X00255079Y00212582D01*
X00255081Y00212582D01*
X00278580Y00212583D01*
D01*
X00278679Y00212583D01*
X00278679D01*
X00278679D01*
X00278720Y00212579D01*
D02*
G37*
D15*
X00228047Y00424430D02*
D03*
Y00429430D02*
D03*
Y00434430D02*
D03*
Y00439430D02*
D03*
Y00444430D02*
D03*
Y00449430D02*
D03*
Y00454430D02*
D03*
Y00459430D02*
D03*
X00270244D02*
D03*
Y00454430D02*
D03*
Y00449430D02*
D03*
Y00444430D02*
D03*
Y00439430D02*
D03*
Y00434430D02*
D03*
Y00429430D02*
D03*
D16*
Y00424430D02*
D03*
D36*
X00917500Y00624758D02*
D03*
Y00595242D02*
D03*
X01422500Y00624758D02*
D03*
Y00595242D02*
D03*
X01127500Y00175242D02*
D03*
Y00204758D02*
D03*
X00622500Y00175242D02*
D03*
Y00204758D02*
D03*
D42*
X00410000Y00675750D02*
D03*
Y00724250D02*
D03*
X00284207Y00723780D02*
D03*
Y00675280D02*
D03*
X00347390D02*
D03*
Y00723780D02*
D03*
X00250000Y00300750D02*
D03*
Y00349250D02*
D03*
X00665000Y00359250D02*
D03*
Y00310750D02*
D03*
X00875000Y00440750D02*
D03*
Y00489250D02*
D03*
X01380000Y00440750D02*
D03*
Y00489250D02*
D03*
X00094660Y00723780D02*
D03*
Y00675280D02*
D03*
X01170000Y00359250D02*
D03*
Y00310750D02*
D03*
X00157843Y00723780D02*
D03*
Y00675280D02*
D03*
X00221025Y00723780D02*
D03*
Y00675280D02*
D03*
D43*
X00371530Y00611490D02*
D03*
X00359530D02*
D03*
X00347530D02*
D03*
X00335530D02*
D03*
X00323530D02*
D03*
X00383530D02*
D03*
X00395530D02*
D03*
X00407530D02*
D03*
X00150200D02*
D03*
X00138200D02*
D03*
X00126200D02*
D03*
X00114200D02*
D03*
X00102200D02*
D03*
X00162200D02*
D03*
X00174200D02*
D03*
X00186200D02*
D03*
D44*
X00365530Y00520995D02*
D03*
X00144200D02*
D03*
D45*
X00710500Y00160000D02*
D03*
X00829500Y00640000D02*
D03*
X01334500Y00640000D02*
D03*
X01215500Y00160000D02*
D03*
D46*
X00681000Y00205000D02*
D03*
Y00200000D02*
D03*
Y00195000D02*
D03*
Y00185000D02*
D03*
Y00175000D02*
D03*
Y00165000D02*
D03*
Y00155000D02*
D03*
Y00145000D02*
D03*
Y00135000D02*
D03*
Y00125000D02*
D03*
Y00120000D02*
D03*
Y00115000D02*
D03*
X00740000Y00205000D02*
D03*
Y00200000D02*
D03*
Y00195000D02*
D03*
Y00190000D02*
D03*
Y00185000D02*
D03*
Y00180000D02*
D03*
Y00175000D02*
D03*
Y00170000D02*
D03*
Y00165000D02*
D03*
Y00160000D02*
D03*
Y00155000D02*
D03*
Y00150000D02*
D03*
Y00145000D02*
D03*
Y00140000D02*
D03*
Y00135000D02*
D03*
Y00130000D02*
D03*
Y00125000D02*
D03*
Y00120000D02*
D03*
Y00115000D02*
D03*
X00859000Y00595000D02*
D03*
Y00600000D02*
D03*
Y00605000D02*
D03*
Y00615000D02*
D03*
Y00625000D02*
D03*
Y00635000D02*
D03*
Y00645000D02*
D03*
Y00655000D02*
D03*
Y00665000D02*
D03*
Y00675000D02*
D03*
Y00680000D02*
D03*
Y00685000D02*
D03*
X00800000Y00595000D02*
D03*
Y00600000D02*
D03*
Y00605000D02*
D03*
Y00610000D02*
D03*
Y00615000D02*
D03*
Y00620000D02*
D03*
Y00625000D02*
D03*
Y00630000D02*
D03*
Y00635000D02*
D03*
Y00640000D02*
D03*
Y00645000D02*
D03*
Y00650000D02*
D03*
Y00655000D02*
D03*
Y00660000D02*
D03*
Y00665000D02*
D03*
Y00670000D02*
D03*
Y00675000D02*
D03*
Y00680000D02*
D03*
Y00685000D02*
D03*
X01364000Y00595000D02*
D03*
Y00600000D02*
D03*
Y00605000D02*
D03*
Y00615000D02*
D03*
Y00625000D02*
D03*
Y00635000D02*
D03*
Y00645000D02*
D03*
Y00655000D02*
D03*
Y00665000D02*
D03*
Y00675000D02*
D03*
Y00680000D02*
D03*
Y00685000D02*
D03*
X01305000Y00595000D02*
D03*
Y00600000D02*
D03*
Y00605000D02*
D03*
Y00610000D02*
D03*
Y00615000D02*
D03*
Y00620000D02*
D03*
Y00625000D02*
D03*
Y00630000D02*
D03*
Y00635000D02*
D03*
Y00640000D02*
D03*
Y00645000D02*
D03*
Y00650000D02*
D03*
Y00655000D02*
D03*
Y00660000D02*
D03*
Y00665000D02*
D03*
Y00670000D02*
D03*
Y00675000D02*
D03*
Y00680000D02*
D03*
Y00685000D02*
D03*
X01186000Y00205000D02*
D03*
Y00200000D02*
D03*
Y00195000D02*
D03*
Y00185000D02*
D03*
Y00175000D02*
D03*
Y00165000D02*
D03*
Y00155000D02*
D03*
Y00145000D02*
D03*
Y00135000D02*
D03*
Y00125000D02*
D03*
Y00120000D02*
D03*
Y00115000D02*
D03*
X01245000Y00205000D02*
D03*
Y00200000D02*
D03*
Y00195000D02*
D03*
Y00190000D02*
D03*
Y00185000D02*
D03*
Y00180000D02*
D03*
Y00175000D02*
D03*
Y00170000D02*
D03*
Y00165000D02*
D03*
Y00160000D02*
D03*
Y00155000D02*
D03*
Y00150000D02*
D03*
Y00145000D02*
D03*
Y00140000D02*
D03*
Y00135000D02*
D03*
Y00130000D02*
D03*
Y00125000D02*
D03*
Y00120000D02*
D03*
Y00115000D02*
D03*
D47*
X01205000Y00483250D02*
D03*
Y00596750D02*
D03*
X00700000Y00596750D02*
D03*
Y00483250D02*
D03*
X01345000Y00203250D02*
D03*
Y00316750D02*
D03*
X00840000Y00203250D02*
D03*
Y00316750D02*
D03*
D48*
X00783450Y00421750D02*
D03*
X00796150D02*
D03*
X00808850D02*
D03*
X00821550D02*
D03*
X00822566Y00477940D02*
D03*
X00809104D02*
D03*
X00795896D02*
D03*
X00782434D02*
D03*
X01288450Y00421750D02*
D03*
X01301150D02*
D03*
X01313850D02*
D03*
X01326550D02*
D03*
X01327566Y00477940D02*
D03*
X01314104D02*
D03*
X01300896D02*
D03*
X01287434D02*
D03*
X01288450Y00501750D02*
D03*
X01301150D02*
D03*
X01313850D02*
D03*
X01326550D02*
D03*
X01327566Y00557940D02*
D03*
X01314104D02*
D03*
X01300896D02*
D03*
X01287434D02*
D03*
X00757566Y00322060D02*
D03*
X00744104D02*
D03*
X00730896D02*
D03*
X00717434D02*
D03*
X00718450Y00378250D02*
D03*
X00731150D02*
D03*
X00743850D02*
D03*
X00756550D02*
D03*
X00782434Y00557940D02*
D03*
X00795896D02*
D03*
X00809104D02*
D03*
X00822566D02*
D03*
X00821550Y00501750D02*
D03*
X00808850D02*
D03*
X00796150D02*
D03*
X00783450D02*
D03*
X00757566Y00242060D02*
D03*
X00744104D02*
D03*
X00730896D02*
D03*
X00717434D02*
D03*
X00718450Y00298250D02*
D03*
X00731150D02*
D03*
X00743850D02*
D03*
X00756550D02*
D03*
X01262566Y00322060D02*
D03*
X01249104D02*
D03*
X01235896D02*
D03*
X01222434D02*
D03*
X01223450Y00378250D02*
D03*
X01236150D02*
D03*
X01248850D02*
D03*
X01261550D02*
D03*
X01262566Y00242060D02*
D03*
X01249104D02*
D03*
X01235896D02*
D03*
X01222434D02*
D03*
X01223450Y00298250D02*
D03*
X01236150D02*
D03*
X01248850D02*
D03*
X01261550D02*
D03*
D49*
X00341500Y00415961D02*
D03*
Y00458461D02*
D03*
X00160000D02*
D03*
Y00415961D02*
D03*
X01249250Y00693750D02*
D03*
Y00651250D02*
D03*
X00280000Y00576250D02*
D03*
Y00533750D02*
D03*
X00230000Y00576250D02*
D03*
Y00533750D02*
D03*
X00744250Y00693750D02*
D03*
Y00651250D02*
D03*
X01300750Y00106250D02*
D03*
Y00148750D02*
D03*
X00795750Y00106250D02*
D03*
Y00148750D02*
D03*
D50*
X00965000Y00392000D02*
D03*
Y00468000D02*
D03*
X00965000Y00293000D02*
D03*
Y00217000D02*
D03*
X00575000Y00507000D02*
D03*
Y00583000D02*
D03*
X01470000Y00293000D02*
D03*
Y00217000D02*
D03*
X01470000Y00468000D02*
D03*
Y00392000D02*
D03*
X01080000Y00583000D02*
D03*
Y00507000D02*
D03*
X01080000Y00408000D02*
D03*
Y00332000D02*
D03*
X00575000Y00408000D02*
D03*
Y00332000D02*
D03*
D51*
X01089250Y00660000D02*
D03*
X01040750D02*
D03*
X01460750Y00139750D02*
D03*
X01509250D02*
D03*
X00584250Y00660000D02*
D03*
X00535750D02*
D03*
X00955750Y00140000D02*
D03*
X01004250D02*
D03*
X00094250Y00195000D02*
D03*
X00045750D02*
D03*
X00494250Y00195000D02*
D03*
X00445750D02*
D03*
D52*
X00110000Y00283500D02*
D03*
X00130000D02*
D03*
X00150000D02*
D03*
X00170000D02*
D03*
X00330000Y00283500D02*
D03*
X00350000D02*
D03*
X00370000D02*
D03*
X00390000D02*
D03*
X00350000Y00251500D02*
D03*
X00370000D02*
D03*
X00390000D02*
D03*
X00410000D02*
D03*
X00130000Y00251500D02*
D03*
X00150000D02*
D03*
X00170000D02*
D03*
X00190000D02*
D03*
D53*
X00140000Y00335000D02*
D03*
X00360000Y00335000D02*
D03*
X00380000Y00200000D02*
D03*
X00160000Y00200000D02*
D03*
D54*
X00212500Y00475000D02*
D03*
X00227500D02*
D03*
X00272500D02*
D03*
X00287500D02*
D03*
X01346545Y00720256D02*
D03*
X01361545D02*
D03*
X00856545Y00720256D02*
D03*
X00841545D02*
D03*
X01188455Y00079744D02*
D03*
X01203455D02*
D03*
X00683455D02*
D03*
X00698455D02*
D03*
D55*
X00260922Y00118440D02*
D03*
Y00133440D02*
D03*
X00207060Y00401290D02*
D03*
Y00386290D02*
D03*
X00295212Y00118440D02*
D03*
Y00133440D02*
D03*
X00244412Y00133440D02*
D03*
Y00118440D02*
D03*
X00278702Y00133440D02*
D03*
Y00118440D02*
D03*
X00287070Y00401290D02*
D03*
Y00386290D02*
D03*
X01312500Y00705000D02*
D03*
Y00720000D02*
D03*
X00807500Y00705000D02*
D03*
Y00720000D02*
D03*
X00732500Y00095000D02*
D03*
Y00080000D02*
D03*
D56*
X00260802Y00152610D02*
D03*
X00245802D02*
D03*
X00293822D02*
D03*
X00278822D02*
D03*
X00223690Y00401290D02*
D03*
X00238690D02*
D03*
X00255440D02*
D03*
X00270440D02*
D03*
X01280000Y00705000D02*
D03*
X01295000D02*
D03*
X01346425Y00704505D02*
D03*
X01361425D02*
D03*
X00841425Y00704506D02*
D03*
X00856425D02*
D03*
X00775000Y00705000D02*
D03*
X00790000D02*
D03*
X00698575Y00095494D02*
D03*
X00683575D02*
D03*
X01203575D02*
D03*
X01188575D02*
D03*
X00750000Y00095000D02*
D03*
X00765000D02*
D03*
D57*
X00312463Y00194753D02*
D03*
Y00209753D02*
D03*
X00216091Y00193018D02*
D03*
Y00178018D02*
D03*
X00216091Y00213791D02*
D03*
Y00228791D02*
D03*
X00875000Y00705000D02*
D03*
Y00720000D02*
D03*
X00777800Y00664956D02*
D03*
Y00679956D02*
D03*
X00879174Y00602783D02*
D03*
Y00587783D02*
D03*
X01295000Y00737500D02*
D03*
Y00722500D02*
D03*
X00790000Y00737500D02*
D03*
Y00722500D02*
D03*
X01236000Y00080250D02*
D03*
Y00095250D02*
D03*
X01329795Y00705005D02*
D03*
Y00720005D02*
D03*
X00824795Y00705005D02*
D03*
Y00720005D02*
D03*
X01282800Y00664956D02*
D03*
Y00679956D02*
D03*
X01165826Y00197216D02*
D03*
Y00212216D02*
D03*
X01170000Y00095000D02*
D03*
Y00080000D02*
D03*
X01267200Y00135044D02*
D03*
Y00120044D02*
D03*
X00660826Y00197216D02*
D03*
Y00212216D02*
D03*
X00762200Y00135044D02*
D03*
Y00120044D02*
D03*
X00665000Y00095000D02*
D03*
Y00080000D02*
D03*
X00750000Y00062500D02*
D03*
Y00077500D02*
D03*
X01220205Y00094994D02*
D03*
Y00079994D02*
D03*
X00715205Y00094994D02*
D03*
Y00079994D02*
D03*
X00280000Y00622500D02*
D03*
Y00607500D02*
D03*
X00230000Y00622500D02*
D03*
Y00607500D02*
D03*
X01380000Y00720000D02*
D03*
Y00705000D02*
D03*
X01384174Y00587783D02*
D03*
Y00602783D02*
D03*
D58*
X00266830Y00199830D02*
D03*
D59*
X00286080Y00209830D02*
D03*
Y00204830D02*
D03*
Y00199830D02*
D03*
Y00194830D02*
D03*
Y00189830D02*
D03*
X00247580Y00189830D02*
D03*
Y00194830D02*
D03*
Y00199830D02*
D03*
Y00204830D02*
D03*
Y00209830D02*
D03*
D60*
X00256830Y00219080D02*
D03*
X00261830D02*
D03*
X00266830D02*
D03*
X00271830D02*
D03*
X00276830D02*
D03*
Y00180580D02*
D03*
X00271830D02*
D03*
X00266830D02*
D03*
X00261830D02*
D03*
X00256830D02*
D03*
D61*
X01376500Y00542900D02*
D03*
X00668500Y00257100D02*
D03*
X00871500Y00542900D02*
D03*
X01173500Y00257100D02*
D03*
D62*
X01442500Y00565800D02*
D03*
Y00520000D02*
D03*
X00602500Y00280000D02*
D03*
Y00234200D02*
D03*
X00937500Y00520000D02*
D03*
Y00565800D02*
D03*
X01107500Y00280000D02*
D03*
Y00234200D02*
D03*
D63*
X00365530Y00553995D02*
D03*
X00144200Y00553995D02*
D03*
D64*
X00365530Y00499495D02*
D03*
X00144200Y00499495D02*
D03*
D65*
X00359530Y00601495D02*
D03*
X00138200D02*
D03*
D66*
X01359500Y00110000D02*
D03*
X01410500D02*
D03*
X01190500Y00690000D02*
D03*
X01139500D02*
D03*
X00854500Y00110000D02*
D03*
X00905500D02*
D03*
X00685500Y00690000D02*
D03*
X00634500D02*
D03*
X00364500Y00095000D02*
D03*
X00415500D02*
D03*
X00124500D02*
D03*
X00175500D02*
D03*
D67*
X01510000Y00720000D02*
D03*
X01500000Y00060000D02*
D03*
X01000000D02*
D03*
X00500000D02*
D03*
X00050000D02*
D03*
X00040000Y00760000D02*
D03*
X00500000D02*
D03*
X01000000D02*
D03*
M02*
